<mxfile host="app.diagrams.net" modified="2023-05-06T18:17:16.627Z" agent="Mozilla/5.0 (Windows NT 10.0; Win64; x64) AppleWebKit/537.36 (KHTML, like Gecko) Chrome/113.0.0.0 Safari/537.36" etag="lUlRUhD855Sgw3fSw17E" version="21.2.9" type="github">
  <diagram name="Trang-1" id="8D1Y1DTjLdXkv08_ukaE">
    <mxGraphModel dx="2219" dy="1134" grid="1" gridSize="10" guides="1" tooltips="1" connect="1" arrows="1" fold="1" page="1" pageScale="1" pageWidth="827" pageHeight="1169" math="0" shadow="0">
      <root>
        <mxCell id="0" />
        <mxCell id="1" parent="0" />
        <mxCell id="F1cOURjf5MscNIJTIDfz-56" value="Sinh vien" style="rounded=0;whiteSpace=wrap;html=1;" vertex="1" parent="1">
          <mxGeometry x="70" y="350" width="120" height="60" as="geometry" />
        </mxCell>
        <mxCell id="F1cOURjf5MscNIJTIDfz-57" value="Khoa" style="rounded=0;whiteSpace=wrap;html=1;" vertex="1" parent="1">
          <mxGeometry x="480" y="620" width="120" height="60" as="geometry" />
        </mxCell>
        <mxCell id="F1cOURjf5MscNIJTIDfz-58" value="Giang vien" style="rounded=0;whiteSpace=wrap;html=1;" vertex="1" parent="1">
          <mxGeometry x="-260" y="620" width="120" height="60" as="geometry" />
        </mxCell>
        <mxCell id="F1cOURjf5MscNIJTIDfz-59" value="Khoa hoc" style="rounded=0;whiteSpace=wrap;html=1;" vertex="1" parent="1">
          <mxGeometry x="50" y="620" width="120" height="60" as="geometry" />
        </mxCell>
        <mxCell id="F1cOURjf5MscNIJTIDfz-60" value="" style="endArrow=none;html=1;rounded=0;entryX=0.5;entryY=1;entryDx=0;entryDy=0;" edge="1" parent="1" target="F1cOURjf5MscNIJTIDfz-56">
          <mxGeometry width="50" height="50" relative="1" as="geometry">
            <mxPoint x="110" y="480" as="sourcePoint" />
            <mxPoint x="160" y="440" as="targetPoint" />
          </mxGeometry>
        </mxCell>
        <mxCell id="F1cOURjf5MscNIJTIDfz-61" value="Hoc" style="rhombus;whiteSpace=wrap;html=1;" vertex="1" parent="1">
          <mxGeometry x="70" y="480" width="80" height="80" as="geometry" />
        </mxCell>
        <mxCell id="F1cOURjf5MscNIJTIDfz-62" value="" style="endArrow=none;html=1;rounded=0;exitX=0.5;exitY=0;exitDx=0;exitDy=0;" edge="1" parent="1" source="F1cOURjf5MscNIJTIDfz-59" target="F1cOURjf5MscNIJTIDfz-61">
          <mxGeometry width="50" height="50" relative="1" as="geometry">
            <mxPoint x="330" y="550" as="sourcePoint" />
            <mxPoint x="380" y="500" as="targetPoint" />
          </mxGeometry>
        </mxCell>
        <mxCell id="F1cOURjf5MscNIJTIDfz-64" value="" style="endArrow=none;html=1;rounded=0;entryX=0;entryY=0.5;entryDx=0;entryDy=0;exitX=0;exitY=0;exitDx=0;exitDy=0;" edge="1" parent="1" source="F1cOURjf5MscNIJTIDfz-96" target="F1cOURjf5MscNIJTIDfz-65">
          <mxGeometry width="50" height="50" relative="1" as="geometry">
            <mxPoint x="70" y="520" as="sourcePoint" />
            <mxPoint x="230" y="510" as="targetPoint" />
          </mxGeometry>
        </mxCell>
        <mxCell id="F1cOURjf5MscNIJTIDfz-65" value="Diem" style="ellipse;whiteSpace=wrap;html=1;fontStyle=2" vertex="1" parent="1">
          <mxGeometry x="-270" y="360" width="120" height="60" as="geometry" />
        </mxCell>
        <mxCell id="F1cOURjf5MscNIJTIDfz-70" style="edgeStyle=orthogonalEdgeStyle;rounded=0;orthogonalLoop=1;jettySize=auto;html=1;exitX=1;exitY=0.5;exitDx=0;exitDy=0;entryX=0;entryY=0.75;entryDx=0;entryDy=0;" edge="1" parent="1" source="F1cOURjf5MscNIJTIDfz-67" target="F1cOURjf5MscNIJTIDfz-57">
          <mxGeometry relative="1" as="geometry" />
        </mxCell>
        <mxCell id="F1cOURjf5MscNIJTIDfz-67" value="Phu trach" style="rhombus;whiteSpace=wrap;html=1;" vertex="1" parent="1">
          <mxGeometry x="290" y="610" width="80" height="80" as="geometry" />
        </mxCell>
        <mxCell id="F1cOURjf5MscNIJTIDfz-68" value="" style="endArrow=none;html=1;rounded=0;exitX=1;exitY=0.5;exitDx=0;exitDy=0;entryX=0;entryY=0.5;entryDx=0;entryDy=0;" edge="1" parent="1" source="F1cOURjf5MscNIJTIDfz-59" target="F1cOURjf5MscNIJTIDfz-67">
          <mxGeometry width="50" height="50" relative="1" as="geometry">
            <mxPoint x="200" y="640" as="sourcePoint" />
            <mxPoint x="250" y="590" as="targetPoint" />
          </mxGeometry>
        </mxCell>
        <mxCell id="F1cOURjf5MscNIJTIDfz-73" style="edgeStyle=orthogonalEdgeStyle;rounded=0;orthogonalLoop=1;jettySize=auto;html=1;exitX=1;exitY=0.5;exitDx=0;exitDy=0;entryX=0;entryY=0.75;entryDx=0;entryDy=0;" edge="1" parent="1" source="F1cOURjf5MscNIJTIDfz-71" target="F1cOURjf5MscNIJTIDfz-59">
          <mxGeometry relative="1" as="geometry" />
        </mxCell>
        <mxCell id="F1cOURjf5MscNIJTIDfz-71" value="Day" style="rhombus;whiteSpace=wrap;html=1;" vertex="1" parent="1">
          <mxGeometry x="-100" y="620" width="80" height="80" as="geometry" />
        </mxCell>
        <mxCell id="F1cOURjf5MscNIJTIDfz-72" value="" style="endArrow=none;html=1;rounded=0;entryX=0;entryY=0.5;entryDx=0;entryDy=0;" edge="1" parent="1" target="F1cOURjf5MscNIJTIDfz-71">
          <mxGeometry width="50" height="50" relative="1" as="geometry">
            <mxPoint x="-140" y="660" as="sourcePoint" />
            <mxPoint x="-90" y="610" as="targetPoint" />
          </mxGeometry>
        </mxCell>
        <mxCell id="F1cOURjf5MscNIJTIDfz-74" value="Loai sinh vien" style="ellipse;whiteSpace=wrap;html=1;" vertex="1" parent="1">
          <mxGeometry x="200" y="270" width="120" height="60" as="geometry" />
        </mxCell>
        <mxCell id="F1cOURjf5MscNIJTIDfz-75" value="" style="endArrow=none;html=1;rounded=0;" edge="1" parent="1">
          <mxGeometry width="50" height="50" relative="1" as="geometry">
            <mxPoint x="190" y="370" as="sourcePoint" />
            <mxPoint x="240" y="320" as="targetPoint" />
          </mxGeometry>
        </mxCell>
        <mxCell id="F1cOURjf5MscNIJTIDfz-76" value="*D" style="ellipse;whiteSpace=wrap;html=1;" vertex="1" parent="1">
          <mxGeometry x="-100" y="240" width="120" height="80" as="geometry" />
        </mxCell>
        <mxCell id="F1cOURjf5MscNIJTIDfz-77" value="Ho ten" style="ellipse;whiteSpace=wrap;html=1;" vertex="1" parent="1">
          <mxGeometry x="50" y="240" width="120" height="80" as="geometry" />
        </mxCell>
        <mxCell id="F1cOURjf5MscNIJTIDfz-78" value="So dien thoai" style="ellipse;whiteSpace=wrap;html=1;" vertex="1" parent="1">
          <mxGeometry x="300" y="350" width="120" height="80" as="geometry" />
        </mxCell>
        <mxCell id="F1cOURjf5MscNIJTIDfz-79" value="" style="endArrow=none;html=1;rounded=0;" edge="1" parent="1" source="F1cOURjf5MscNIJTIDfz-56" target="F1cOURjf5MscNIJTIDfz-78">
          <mxGeometry width="50" height="50" relative="1" as="geometry">
            <mxPoint x="190" y="430" as="sourcePoint" />
            <mxPoint x="260.71067811865476" y="380" as="targetPoint" />
          </mxGeometry>
        </mxCell>
        <mxCell id="F1cOURjf5MscNIJTIDfz-80" value="" style="endArrow=none;html=1;rounded=0;" edge="1" parent="1" source="F1cOURjf5MscNIJTIDfz-76" target="F1cOURjf5MscNIJTIDfz-56">
          <mxGeometry width="50" height="50" relative="1" as="geometry">
            <mxPoint x="-30" y="380" as="sourcePoint" />
            <mxPoint x="20" y="330" as="targetPoint" />
          </mxGeometry>
        </mxCell>
        <mxCell id="F1cOURjf5MscNIJTIDfz-81" value="" style="endArrow=none;html=1;rounded=0;entryX=0.5;entryY=0;entryDx=0;entryDy=0;" edge="1" parent="1" source="F1cOURjf5MscNIJTIDfz-77" target="F1cOURjf5MscNIJTIDfz-56">
          <mxGeometry width="50" height="50" relative="1" as="geometry">
            <mxPoint x="-50" y="420" as="sourcePoint" />
            <mxPoint y="370" as="targetPoint" />
          </mxGeometry>
        </mxCell>
        <mxCell id="F1cOURjf5MscNIJTIDfz-82" value="Ho ten" style="ellipse;whiteSpace=wrap;html=1;" vertex="1" parent="1">
          <mxGeometry x="-360" y="480" width="120" height="80" as="geometry" />
        </mxCell>
        <mxCell id="F1cOURjf5MscNIJTIDfz-83" value="Id" style="ellipse;whiteSpace=wrap;html=1;" vertex="1" parent="1">
          <mxGeometry x="-440" y="590" width="120" height="80" as="geometry" />
        </mxCell>
        <mxCell id="F1cOURjf5MscNIJTIDfz-84" value="Tuoi" style="ellipse;whiteSpace=wrap;html=1;" vertex="1" parent="1">
          <mxGeometry x="-430" y="700" width="120" height="60" as="geometry" />
        </mxCell>
        <mxCell id="F1cOURjf5MscNIJTIDfz-85" value="" style="endArrow=none;html=1;rounded=0;entryX=0;entryY=1;entryDx=0;entryDy=0;" edge="1" parent="1" target="F1cOURjf5MscNIJTIDfz-58">
          <mxGeometry width="50" height="50" relative="1" as="geometry">
            <mxPoint x="-320" y="720" as="sourcePoint" />
            <mxPoint x="-270" y="670" as="targetPoint" />
          </mxGeometry>
        </mxCell>
        <mxCell id="F1cOURjf5MscNIJTIDfz-86" value="" style="endArrow=none;html=1;rounded=0;exitX=1;exitY=0.5;exitDx=0;exitDy=0;entryX=0;entryY=0.5;entryDx=0;entryDy=0;" edge="1" parent="1" source="F1cOURjf5MscNIJTIDfz-83" target="F1cOURjf5MscNIJTIDfz-58">
          <mxGeometry width="50" height="50" relative="1" as="geometry">
            <mxPoint x="-280" y="620" as="sourcePoint" />
            <mxPoint x="-230" y="570" as="targetPoint" />
          </mxGeometry>
        </mxCell>
        <mxCell id="F1cOURjf5MscNIJTIDfz-87" value="" style="endArrow=none;html=1;rounded=0;" edge="1" parent="1" source="F1cOURjf5MscNIJTIDfz-82" target="F1cOURjf5MscNIJTIDfz-58">
          <mxGeometry width="50" height="50" relative="1" as="geometry">
            <mxPoint x="-240" y="570" as="sourcePoint" />
            <mxPoint x="-169.28932188134524" y="520" as="targetPoint" />
          </mxGeometry>
        </mxCell>
        <mxCell id="F1cOURjf5MscNIJTIDfz-88" value="Laoi khoa hoc" style="ellipse;whiteSpace=wrap;html=1;" vertex="1" parent="1">
          <mxGeometry x="40" y="730" width="120" height="80" as="geometry" />
        </mxCell>
        <mxCell id="F1cOURjf5MscNIJTIDfz-89" value="" style="endArrow=none;html=1;rounded=0;entryX=0.5;entryY=1;entryDx=0;entryDy=0;" edge="1" parent="1" target="F1cOURjf5MscNIJTIDfz-59">
          <mxGeometry width="50" height="50" relative="1" as="geometry">
            <mxPoint x="120" y="750" as="sourcePoint" />
            <mxPoint x="160" y="680" as="targetPoint" />
          </mxGeometry>
        </mxCell>
        <mxCell id="F1cOURjf5MscNIJTIDfz-90" value="Id" style="ellipse;whiteSpace=wrap;html=1;" vertex="1" parent="1">
          <mxGeometry x="-90" y="730" width="120" height="80" as="geometry" />
        </mxCell>
        <mxCell id="F1cOURjf5MscNIJTIDfz-91" value="" style="endArrow=none;html=1;rounded=0;exitX=1;exitY=0;exitDx=0;exitDy=0;entryX=0.25;entryY=1;entryDx=0;entryDy=0;" edge="1" parent="1" source="F1cOURjf5MscNIJTIDfz-90" target="F1cOURjf5MscNIJTIDfz-59">
          <mxGeometry width="50" height="50" relative="1" as="geometry">
            <mxPoint x="-10" y="730" as="sourcePoint" />
            <mxPoint x="40" y="680" as="targetPoint" />
          </mxGeometry>
        </mxCell>
        <mxCell id="F1cOURjf5MscNIJTIDfz-92" value="ID" style="ellipse;whiteSpace=wrap;html=1;" vertex="1" parent="1">
          <mxGeometry x="460" y="430" width="120" height="80" as="geometry" />
        </mxCell>
        <mxCell id="F1cOURjf5MscNIJTIDfz-93" value="Ten khoa" style="ellipse;whiteSpace=wrap;html=1;" vertex="1" parent="1">
          <mxGeometry x="650" y="520" width="120" height="80" as="geometry" />
        </mxCell>
        <mxCell id="F1cOURjf5MscNIJTIDfz-94" value="" style="endArrow=none;html=1;rounded=0;exitX=1;exitY=0.25;exitDx=0;exitDy=0;entryX=0;entryY=0;entryDx=0;entryDy=0;" edge="1" parent="1" source="F1cOURjf5MscNIJTIDfz-57" target="F1cOURjf5MscNIJTIDfz-93">
          <mxGeometry width="50" height="50" relative="1" as="geometry">
            <mxPoint x="620" y="630" as="sourcePoint" />
            <mxPoint x="670" y="580" as="targetPoint" />
          </mxGeometry>
        </mxCell>
        <mxCell id="F1cOURjf5MscNIJTIDfz-95" value="" style="endArrow=none;html=1;rounded=0;" edge="1" parent="1" source="F1cOURjf5MscNIJTIDfz-57">
          <mxGeometry width="50" height="50" relative="1" as="geometry">
            <mxPoint x="470" y="530" as="sourcePoint" />
            <mxPoint x="530" y="510" as="targetPoint" />
          </mxGeometry>
        </mxCell>
        <mxCell id="F1cOURjf5MscNIJTIDfz-96" value="enrollments" style="rounded=0;whiteSpace=wrap;html=1;" vertex="1" parent="1">
          <mxGeometry x="-110" y="480" width="120" height="60" as="geometry" />
        </mxCell>
        <mxCell id="F1cOURjf5MscNIJTIDfz-98" value="" style="endArrow=none;html=1;rounded=0;exitX=1;exitY=0.5;exitDx=0;exitDy=0;entryX=0;entryY=0.5;entryDx=0;entryDy=0;" edge="1" parent="1" source="F1cOURjf5MscNIJTIDfz-96" target="F1cOURjf5MscNIJTIDfz-61">
          <mxGeometry width="50" height="50" relative="1" as="geometry">
            <mxPoint x="40" y="490" as="sourcePoint" />
            <mxPoint x="90" y="440" as="targetPoint" />
          </mxGeometry>
        </mxCell>
      </root>
    </mxGraphModel>
  </diagram>
</mxfile>
